<svg xmlns="http://www.w3.org/2000/svg" height="24" viewBox="0 -960 960 960" width="24"><path d="M799.13-100.782q-128.446 0-253.81-55.913T316.565-315.717Q213.173-418.826 157.26-544.376q-55.913-125.551-55.913-254.189 0-25.994 17.168-43.324 17.168-17.329 42.92-17.329H322.87q27 0 44.783 14.304 17.783 14.305 23.175 39.175l25.434 128.13q4.261 24.479-.717 41.696-4.978 17.218-19.761 30.305L295.392-512.13q17.739 30.782 41.848 60.76 24.108 29.979 54.847 59.718 28.174 28.173 56.522 50.717 28.347 22.543 58.434 40.021l97.956-96.261q15.218-14.653 35.371-20.283 20.152-5.631 42.631-1.37l122.738 26.305q25.87 7.391 39.675 23.826 13.804 16.435 13.804 41.306v165.956q0 25.994-17.369 43.324-17.37 17.329-42.719 17.329ZM244.391-609.044l65.435-60.913-15.869-83.26h-85.044q3.87 37.043 11.998 73.053t23.48 71.12Zm360.261 360.826q35.609 15.305 73 24.739 37.391 9.435 75.565 13.566v-85.174l-82.695-17.87-65.87 64.739ZM244.391-609.044Zm360.261 360.826Z"/></svg>